<svg xmlns="http://www.w3.org/2000/svg" width="100%" viewBox="0 0 124 51" fill="none"><g clip-path="url(#clip0_10841_1303)"><path d="M82.5066 23.3806C82.5066 16.3352 85.906 12.4169 91.2127 12.4169C96.5194 12.4169 95.7279 13.364 97.0384 15.1416V12.7542H102.112V34.9022C102.112 40.637 98.1542 43.5693 92.8865 43.5693C87.6187 43.5693 83.856 41.156 83.1035 36.1218H88.2155C88.5269 38.3794 90.3564 39.5731 92.8086 39.5731C95.2609 39.5731 97.0384 38.3405 97.0384 34.98V31.4119C95.6501 33.3192 93.6779 34.3053 91.2127 34.3053C85.8282 34.3053 82.5066 30.1534 82.5066 23.3806ZM97.0254 23.3806C97.0254 19.06 95.3257 16.6077 92.3545 16.6077C89.3833 16.6077 87.7225 18.9821 87.7225 23.3806C87.7225 27.779 89.3444 30.1145 92.3545 30.1145C95.3646 30.1145 97.0254 27.7401 97.0254 23.3806Z" fill="currentColor"></path><path d="M115.294 12.4169C112.764 12.4169 110.779 13.364 109.468 15.1416V5.72188H104.395V33.968H109.468V31.4119C110.857 33.3192 112.829 34.3053 115.294 34.3053C120.678 34.3053 124 30.1534 124 23.3806C124 16.6077 120.601 12.4169 115.294 12.4169ZM114.152 30.1145C111.103 30.1145 109.481 27.7401 109.481 23.3806C109.481 19.021 111.181 16.6077 114.152 16.6077C117.123 16.6077 118.784 18.9821 118.784 23.3806C118.784 27.779 117.162 30.1145 114.152 30.1145Z" fill="currentColor"></path><path d="M69.1426 12.7542L73.7357 28.9078L77.6541 12.7542H82.7142L77.1481 33.981H70.5699L66.3271 17.8273L62.0973 33.981H55.5191L49.9399 12.7542H55.0131L58.9315 28.9078L63.5245 12.7542H69.1426Z" fill="currentColor"></path><path d="M43.2969 0.583858C26.754 13.5197 9.65325 15.9979 9.65325 15.9979C9.65325 15.9979 8.45957 16.1795 8.0314 16.6726C7.34374 17.4122 7.64216 18.2425 7.64216 18.2425C7.64216 18.2425 7.64216 18.2425 7.64216 18.2555C7.81083 18.8005 11.314 30.7891 0.454131 48.1883C-0.246507 49.3042 -0.0389108 49.9789 0.48008 50.4978C1.05097 50.952 1.73863 51.0817 2.77662 50.2773C19.3195 37.3414 36.4202 34.8632 36.4202 34.8632C36.4202 34.8632 37.6009 34.7335 38.0031 34.2664C38.6908 33.462 38.4313 32.6186 38.4313 32.6186C38.4313 32.6186 38.4313 32.6186 38.4313 32.6056C38.2886 32.1515 34.7076 20.1369 45.6193 2.65982C46.32 1.54399 46.1124 0.869303 45.5934 0.350312C45.0225 -0.103805 44.3348 -0.233553 43.2969 0.570883V0.583858Z" fill="currentColor"></path></g><defs><clipPath id="clip0_10841_1303"><rect width="124" height="50.8611" fill="currentColor"></rect></clipPath></defs></svg>