<svg width="60" height="215" viewBox="0 0 60 215" preserveAspectRatio="none" fill="none" xmlns="http://www.w3.org/2000/svg">
<path d="M10.6667 2.5946V0H12V2.5946H10.6667ZM0 2.5946V0H1.33333V2.5946H0ZM2.66667 2.5946V0H4V2.5946H2.66667ZM5.33333 2.5946V0H6.66667V2.5946H5.33333ZM8 2.5946V0H9.33333V2.5946H8ZM10.6667 7.78379V5.18919H12V7.78379H10.6667ZM0 7.78379V5.18919H1.33333V7.78379H0ZM2.66667 7.78379V5.18919H4V7.78379H2.66667ZM5.33333 7.78379V5.18919H6.66667V7.78379H5.33333ZM8 7.78379V5.18919H9.33333V7.78379H8ZM10.6667 12.973V10.3784H12V12.973H10.6667ZM0 12.973V10.3784H1.33333V12.973H0ZM2.66667 12.973V10.3784H4V12.973H2.66667ZM5.33333 12.973V10.3784H6.66667V12.973H5.33333ZM8 12.973V10.3784H9.33333V12.973H8ZM10.6667 18.1622V15.5676H12V18.1622H10.6667ZM0 18.1622V15.5676H1.33333V18.1622H0ZM2.66667 18.1622V15.5676H4V18.1622H2.66667ZM5.33333 18.1622V15.5676H6.66667V18.1622H5.33333ZM8 18.1622V15.5676H9.33333V18.1622H8ZM10.6667 23.3514V20.7568H12V23.3514H10.6667ZM0 23.3514V20.7568H1.33333V23.3514H0ZM2.66667 23.3514V20.7568H4V23.3514H2.66667ZM5.33333 23.3514V20.7568H6.66667V23.3514H5.33333ZM8 23.3514V20.7568H9.33333V23.3514H8ZM10.6667 28.5405V25.9459H12V28.5405H10.6667ZM0 28.5405V25.9459H1.33333V28.5405H0ZM2.66667 28.5405V25.9459H4V28.5405H2.66667ZM5.33333 28.5405V25.9459H6.66667V28.5405H5.33333ZM8 28.5405V25.9459H9.33333V28.5405H8ZM10.6667 33.7297V31.1351H12V33.7297H10.6667ZM0 33.7297V31.1351H1.33333V33.7297H0ZM2.66667 33.7297V31.1351H4V33.7297H2.66667ZM5.33333 33.7297V31.1351H6.66667V33.7297H5.33333ZM8 33.7297V31.1351H9.33333V33.7297H8ZM10.6667 38.9189V36.3243H12V38.9189H10.6667ZM0 38.9189V36.3243H1.33333V38.9189H0ZM2.66667 38.9189V36.3243H4V38.9189H2.66667ZM5.33333 38.9189V36.3243H6.66667V38.9189H5.33333ZM8 38.9189V36.3243H9.33333V38.9189H8ZM10.6667 44.1081V41.5135H12V44.1081H10.6667ZM0 44.1081V41.5135H1.33333V44.1081H0ZM2.66667 44.1081V41.5135H4V44.1081H2.66667ZM5.33333 44.1081V41.5135H6.66667V44.1081H5.33333ZM8 44.1081V41.5135H9.33333V44.1081H8ZM10.6667 49.2973V46.7027H12V49.2973H10.6667ZM0 49.2973V46.7027H1.33333V49.2973H0ZM2.66667 49.2973V46.7027H4V49.2973H2.66667ZM5.33333 49.2973V46.7027H6.66667V49.2973H5.33333ZM8 49.2973V46.7027H9.33333V49.2973H8ZM10.6667 54.4865V51.8919H12V54.4865H10.6667ZM0 54.4865V51.8919H1.33333V54.4865H0ZM2.66667 54.4865V51.8919H4V54.4865H2.66667ZM5.33333 54.4865V51.8919H6.66667V54.4865H5.33333ZM8 54.4865V51.8919H9.33333V54.4865H8Z" fill="#B84040"/>
<path d="M22.8 2.47666V0H24V2.47666H22.8ZM12 54.4865V52.0098H13.2V54.4865H12ZM12 49.5332V47.0565H13.2V49.5332H12ZM13.2 52.0098V49.5332H14.4V52.0098H13.2ZM14.4 54.4865V52.0098H15.6V54.4865H14.4ZM12 44.5799V42.1032H13.2V44.5799H12ZM13.2 47.0565V44.5799H14.4V47.0565H13.2ZM14.4 49.5332V47.0565H15.6V49.5332H14.4ZM15.6 52.0098V49.5332H16.8V52.0098H15.6ZM16.8 54.4865V52.0098H18V54.4865H16.8ZM12 39.6265V37.1499H13.2V39.6265H12ZM13.2 42.1032V39.6265H14.4V42.1032H13.2ZM14.4 44.5799V42.1032H15.6V44.5799H14.4ZM15.6 47.0565V44.5799H16.8V47.0565H15.6ZM16.8 49.5332V47.0565H18V49.5332H16.8ZM18 52.0098V49.5332H19.2V52.0098H18ZM19.2 54.4865V52.0098H20.4V54.4865H19.2ZM12 34.6732V32.1966H13.2V34.6732H12ZM13.2 37.1499V34.6732H14.4V37.1499H13.2ZM14.4 39.6265V37.1499H15.6V39.6265H14.4ZM15.6 42.1032V39.6265H16.8V42.1032H15.6ZM16.8 44.5799V42.1032H18V44.5799H16.8ZM18 47.0565V44.5799H19.2V47.0565H18ZM19.2 49.5332V47.0565H20.4V49.5332H19.2ZM20.4 52.0098V49.5332H21.6V52.0098H20.4ZM21.6 54.4865V52.0098H22.8V54.4865H21.6ZM12 29.7199V27.2432H13.2V29.7199H12ZM13.2 32.1966V29.7199H14.4V32.1966H13.2ZM14.4 34.6732V32.1966H15.6V34.6732H14.4ZM15.6 37.1499V34.6732H16.8V37.1499H15.6ZM16.8 39.6265V37.1499H18V39.6265H16.8ZM18 42.1032V39.6265H19.2V42.1032H18ZM19.2 44.5799V42.1032H20.4V44.5799H19.2ZM20.4 47.0565V44.5799H21.6V47.0565H20.4ZM21.6 49.5332V47.0565H22.8V49.5332H21.6ZM22.8 52.0098V49.5332H24V52.0098H22.8ZM12 24.7666V22.2899H13.2V24.7666H12ZM13.2 27.2432V24.7666H14.4V27.2432H13.2ZM14.4 29.7199V27.2432H15.6V29.7199H14.4ZM15.6 32.1966V29.7199H16.8V32.1966H15.6ZM16.8 34.6732V32.1966H18V34.6732H16.8ZM18 37.1499V34.6732H19.2V37.1499H18ZM19.2 39.6265V37.1499H20.4V39.6265H19.2ZM20.4 42.1032V39.6265H21.6V42.1032H20.4ZM21.6 44.5799V42.1032H22.8V44.5799H21.6ZM22.8 47.0565V44.5799H24V47.0565H22.8ZM12 19.8133V17.3366H13.2V19.8133H12ZM13.2 22.2899V19.8133H14.4V22.2899H13.2ZM14.4 24.7666V22.2899H15.6V24.7666H14.4ZM15.6 27.2432V24.7666H16.8V27.2432H15.6ZM16.8 29.7199V27.2432H18V29.7199H16.8ZM18 32.1966V29.7199H19.2V32.1966H18ZM19.2 34.6732V32.1966H20.4V34.6732H19.2ZM20.4 37.1499V34.6732H21.6V37.1499H20.4ZM21.6 39.6265V37.1499H22.8V39.6265H21.6ZM22.8 42.1032V39.6265H24V42.1032H22.8ZM12 14.86V12.3833H13.2V14.86H12ZM13.2 17.3366V14.86H14.4V17.3366H13.2ZM14.4 19.8133V17.3366H15.6V19.8133H14.4ZM15.6 22.2899V19.8133H16.8V22.2899H15.6ZM16.8 24.7666V22.2899H18V24.7666H16.8ZM18 27.2432V24.7666H19.2V27.2432H18ZM19.2 29.7199V27.2432H20.4V29.7199H19.2ZM20.4 32.1966V29.7199H21.6V32.1966H20.4ZM21.6 34.6732V32.1966H22.8V34.6732H21.6ZM22.8 37.1499V34.6732H24V37.1499H22.8ZM12 9.90664V7.42998H13.2V9.90664H12ZM13.2 12.3833V9.90664H14.4V12.3833H13.2ZM14.4 14.86V12.3833H15.6V14.86H14.4ZM15.6 17.3366V14.86H16.8V17.3366H15.6ZM16.8 19.8133V17.3366H18V19.8133H16.8ZM18 22.2899V19.8133H19.2V22.2899H18ZM19.2 24.7666V22.2899H20.4V24.7666H19.2ZM20.4 27.2432V24.7666H21.6V27.2432H20.4ZM21.6 29.7199V27.2432H22.8V29.7199H21.6ZM22.8 32.1966V29.7199H24V32.1966H22.8ZM12 4.95332V2.47666H13.2V4.95332H12ZM13.2 7.42998V4.95332H14.4V7.42998H13.2ZM14.4 9.90664V7.42998H15.6V9.90664H14.4ZM15.6 12.3833V9.90664H16.8V12.3833H15.6ZM16.8 14.86V12.3833H18V14.86H16.8ZM18 17.3366V14.86H19.2V17.3366H18ZM19.2 19.8133V17.3366H20.4V19.8133H19.2ZM20.4 22.2899V19.8133H21.6V22.2899H20.4ZM21.6 24.7666V22.2899H22.8V24.7666H21.6ZM22.8 27.2432V24.7666H24V27.2432H22.8ZM13.2 2.47666V0H14.4V2.47666H13.2ZM14.4 4.95332V2.47666H15.6V4.95332H14.4ZM15.6 7.42998V4.95332H16.8V7.42998H15.6ZM16.8 9.90664V7.42998H18V9.90664H16.8ZM18 12.3833V9.90664H19.2V12.3833H18ZM19.2 14.86V12.3833H20.4V14.86H19.2ZM20.4 17.3366V14.86H21.6V17.3366H20.4ZM21.6 19.8133V17.3366H22.8V19.8133H21.6ZM22.8 22.2899V19.8133H24V22.2899H22.8ZM15.6 2.47666V0H16.8V2.47666H15.6ZM16.8 4.95332V2.47666H18V4.95332H16.8ZM18 7.42998V4.95332H19.2V7.42998H18ZM19.2 9.90664V7.42998H20.4V9.90664H19.2ZM20.4 12.3833V9.90664H21.6V12.3833H20.4ZM21.6 14.86V12.3833H22.8V14.86H21.6ZM22.8 17.3366V14.86H24V17.3366H22.8ZM18 2.47666V0H19.2V2.47666H18ZM19.2 4.95332V2.47666H20.4V4.95332H19.2ZM20.4 7.42998V4.95332H21.6V7.42998H20.4ZM21.6 9.90664V7.42998H22.8V9.90664H21.6ZM22.8 12.3833V9.90664H24V12.3833H22.8ZM20.4 2.47666V0H21.6V2.47666H20.4ZM21.6 4.95332V2.47666H22.8V4.95332H21.6ZM22.8 7.42998V4.95332H24V7.42998H22.8Z" fill="#B84040"/>
<path d="M34.8 2.47666V0H36V2.47666H34.8ZM24 54.4865V52.0098H25.2V54.4865H24ZM24 49.5332V47.0565H25.2V49.5332H24ZM25.2 52.0098V49.5332H26.4V52.0098H25.2ZM26.4 54.4865V52.0098H27.6V54.4865H26.4ZM24 44.5799V42.1032H25.2V44.5799H24ZM25.2 47.0565V44.5799H26.4V47.0565H25.2ZM26.4 49.5332V47.0565H27.6V49.5332H26.4ZM27.6 52.0098V49.5332H28.8V52.0098H27.6ZM28.8 54.4865V52.0098H30V54.4865H28.8ZM24 39.6265V37.1499H25.2V39.6265H24ZM25.2 42.1032V39.6265H26.4V42.1032H25.2ZM26.4 44.5799V42.1032H27.6V44.5799H26.4ZM27.6 47.0565V44.5799H28.8V47.0565H27.6ZM28.8 49.5332V47.0565H30V49.5332H28.8ZM30 52.0098V49.5332H31.2V52.0098H30ZM31.2 54.4865V52.0098H32.4V54.4865H31.2ZM24 34.6732V32.1966H25.2V34.6732H24ZM25.2 37.1499V34.6732H26.4V37.1499H25.2ZM26.4 39.6265V37.1499H27.6V39.6265H26.4ZM27.6 42.1032V39.6265H28.8V42.1032H27.6ZM28.8 44.5799V42.1032H30V44.5799H28.8ZM30 47.0565V44.5799H31.2V47.0565H30ZM31.2 49.5332V47.0565H32.4V49.5332H31.2ZM32.4 52.0098V49.5332H33.6V52.0098H32.4ZM33.6 54.4865V52.0098H34.8V54.4865H33.6ZM24 29.7199V27.2432H25.2V29.7199H24ZM25.2 32.1966V29.7199H26.4V32.1966H25.2ZM26.4 34.6732V32.1966H27.6V34.6732H26.4ZM27.6 37.1499V34.6732H28.8V37.1499H27.6ZM28.8 39.6265V37.1499H30V39.6265H28.8ZM30 42.1032V39.6265H31.2V42.1032H30ZM31.2 44.5799V42.1032H32.4V44.5799H31.2ZM32.4 47.0565V44.5799H33.6V47.0565H32.4ZM33.6 49.5332V47.0565H34.8V49.5332H33.6ZM34.8 52.0098V49.5332H36V52.0098H34.8ZM24 24.7666V22.2899H25.2V24.7666H24ZM25.2 27.2432V24.7666H26.4V27.2432H25.2ZM26.4 29.7199V27.2432H27.6V29.7199H26.4ZM27.6 32.1966V29.7199H28.8V32.1966H27.6ZM28.8 34.6732V32.1966H30V34.6732H28.8ZM30 37.1499V34.6732H31.2V37.1499H30ZM31.2 39.6265V37.1499H32.4V39.6265H31.2ZM32.4 42.1032V39.6265H33.6V42.1032H32.4ZM33.6 44.5799V42.1032H34.8V44.5799H33.6ZM34.8 47.0565V44.5799H36V47.0565H34.8ZM24 19.8133V17.3366H25.2V19.8133H24ZM25.2 22.2899V19.8133H26.4V22.2899H25.2ZM26.4 24.7666V22.2899H27.6V24.7666H26.4ZM27.6 27.2432V24.7666H28.8V27.2432H27.6ZM28.8 29.7199V27.2432H30V29.7199H28.8ZM30 32.1966V29.7199H31.2V32.1966H30ZM31.2 34.6732V32.1966H32.4V34.6732H31.2ZM32.4 37.1499V34.6732H33.6V37.1499H32.4ZM33.6 39.6265V37.1499H34.8V39.6265H33.6ZM34.8 42.1032V39.6265H36V42.1032H34.8ZM24 14.86V12.3833H25.2V14.86H24ZM25.2 17.3366V14.86H26.4V17.3366H25.2ZM26.4 19.8133V17.3366H27.6V19.8133H26.4ZM27.6 22.2899V19.8133H28.8V22.2899H27.6ZM28.8 24.7666V22.2899H30V24.7666H28.8ZM30 27.2432V24.7666H31.2V27.2432H30ZM31.2 29.7199V27.2432H32.4V29.7199H31.2ZM32.4 32.1966V29.7199H33.6V32.1966H32.4ZM33.6 34.6732V32.1966H34.8V34.6732H33.6ZM34.8 37.1499V34.6732H36V37.1499H34.8ZM24 9.90664V7.42998H25.2V9.90664H24ZM25.2 12.3833V9.90664H26.4V12.3833H25.2ZM26.4 14.86V12.3833H27.6V14.86H26.4ZM27.6 17.3366V14.86H28.8V17.3366H27.6ZM28.8 19.8133V17.3366H30V19.8133H28.8ZM30 22.2899V19.8133H31.2V22.2899H30ZM31.2 24.7666V22.2899H32.4V24.7666H31.2ZM32.4 27.2432V24.7666H33.6V27.2432H32.4ZM33.6 29.7199V27.2432H34.8V29.7199H33.6ZM34.8 32.1966V29.7199H36V32.1966H34.8ZM24 4.95332V2.47666H25.2V4.95332H24ZM25.2 7.42998V4.95332H26.4V7.42998H25.2ZM26.4 9.90664V7.42998H27.6V9.90664H26.4ZM27.6 12.3833V9.90664H28.8V12.3833H27.6ZM28.8 14.86V12.3833H30V14.86H28.8ZM30 17.3366V14.86H31.2V17.3366H30ZM31.2 19.8133V17.3366H32.4V19.8133H31.2ZM32.4 22.2899V19.8133H33.6V22.2899H32.4ZM33.6 24.7666V22.2899H34.8V24.7666H33.6ZM34.8 27.2432V24.7666H36V27.2432H34.8ZM25.2 2.47666V0H26.4V2.47666H25.2ZM26.4 4.95332V2.47666H27.6V4.95332H26.4ZM27.6 7.42998V4.95332H28.8V7.42998H27.6ZM28.8 9.90664V7.42998H30V9.90664H28.8ZM30 12.3833V9.90664H31.2V12.3833H30ZM31.2 14.86V12.3833H32.4V14.86H31.2ZM32.4 17.3366V14.86H33.6V17.3366H32.4ZM33.6 19.8133V17.3366H34.8V19.8133H33.6ZM34.8 22.2899V19.8133H36V22.2899H34.8ZM27.6 2.47666V0H28.8V2.47666H27.6ZM28.8 4.95332V2.47666H30V4.95332H28.8ZM30 7.42998V4.95332H31.2V7.42998H30ZM31.2 9.90664V7.42998H32.4V9.90664H31.2ZM32.4 12.3833V9.90664H33.6V12.3833H32.4ZM33.6 14.86V12.3833H34.8V14.86H33.6ZM34.8 17.3366V14.86H36V17.3366H34.8ZM30 2.47666V0H31.2V2.47666H30ZM31.2 4.95332V2.47666H32.4V4.95332H31.2ZM32.4 7.42998V4.95332H33.6V7.42998H32.4ZM33.6 9.90664V7.42998H34.8V9.90664H33.6ZM34.8 12.3833V9.90664H36V12.3833H34.8ZM32.4 2.47666V0H33.6V2.47666H32.4ZM33.6 4.95332V2.47666H34.8V4.95332H33.6ZM34.8 7.42998V4.95332H36V7.42998H34.8Z" fill="#B84040"/>
<path d="M36 54.4865V52.0098H37.2V49.5332H36V47.0565H37.2V44.5799H36V42.1032H37.2V39.6265H36V37.1499H37.2V34.6732H36V32.1966H37.2V29.7199H36V27.2432H37.2V24.7666H36V22.2899H37.2V19.8133H36V17.3366H37.2V14.86H36V12.3833H37.2V9.90664H36V7.42998H37.2V4.95332H36V2.47666H37.2V0H38.4V2.47666H39.6V0H40.8V2.47666H42V0H43.2V2.47666H44.4V0H45.6V2.47666H46.8V0H48V54.4865H36ZM38.4 52.0098H39.6V49.5332H38.4V52.0098ZM38.4 47.0565H39.6V44.5799H38.4V47.0565ZM40.8 52.0098H42V49.5332H40.8V52.0098ZM38.4 42.1032H39.6V39.6265H38.4V42.1032ZM40.8 47.0565H42V44.5799H40.8V47.0565ZM43.2 52.0098H44.4V49.5332H43.2V52.0098ZM38.4 37.1499H39.6V34.6732H38.4V37.1499ZM40.8 42.1032H42V39.6265H40.8V42.1032ZM43.2 47.0565H44.4V44.5799H43.2V47.0565ZM45.6 52.0098H46.8V49.5332H45.6V52.0098ZM38.4 32.1966H39.6V29.7199H38.4V32.1966ZM40.8 37.1499H42V34.6732H40.8V37.1499ZM43.2 42.1032H44.4V39.6265H43.2V42.1032ZM45.6 47.0565H46.8V44.5799H45.6V47.0565ZM38.4 27.2432H39.6V24.7666H38.4V27.2432ZM40.8 32.1966H42V29.7199H40.8V32.1966ZM43.2 37.1499H44.4V34.6732H43.2V37.1499ZM45.6 42.1032H46.8V39.6265H45.6V42.1032ZM38.4 22.2899H39.6V19.8133H38.4V22.2899ZM40.8 27.2432H42V24.7666H40.8V27.2432ZM43.2 32.1966H44.4V29.7199H43.2V32.1966ZM45.6 37.1499H46.8V34.6732H45.6V37.1499ZM38.4 17.3366H39.6V14.86H38.4V17.3366ZM40.8 22.2899H42V19.8133H40.8V22.2899ZM43.2 27.2432H44.4V24.7666H43.2V27.2432ZM45.6 32.1966H46.8V29.7199H45.6V32.1966ZM38.4 12.3833H39.6V9.90664H38.4V12.3833ZM40.8 17.3366H42V14.86H40.8V17.3366ZM43.2 22.2899H44.4V19.8133H43.2V22.2899ZM45.6 27.2432H46.8V24.7666H45.6V27.2432ZM38.4 7.42998H39.6V4.95332H38.4V7.42998ZM40.8 12.3833H42V9.90664H40.8V12.3833ZM43.2 17.3366H44.4V14.86H43.2V17.3366ZM45.6 22.2899H46.8V19.8133H45.6V22.2899ZM40.8 7.42998H42V4.95332H40.8V7.42998ZM43.2 12.3833H44.4V9.90664H43.2V12.3833ZM45.6 17.3366H46.8V14.86H45.6V17.3366ZM43.2 7.42998H44.4V4.95332H43.2V7.42998ZM45.6 12.3833H46.8V9.90664H45.6V12.3833ZM45.6 7.42998H46.8V4.95332H45.6V7.42998Z" fill="#B84040"/>
<path d="M48 54.4865V0H60V54.4865H48Z" fill="#B84040"/>
<path d="M10.6667 57.0809V54.4863H12V57.0809H10.6667ZM0 57.0809V54.4863H1.33333V57.0809H0ZM2.66667 57.0809V54.4863H4V57.0809H2.66667ZM5.33333 57.0809V54.4863H6.66667V57.0809H5.33333ZM8 57.0809V54.4863H9.33333V57.0809H8ZM10.6667 62.2701V59.6755H12V62.2701H10.6667ZM0 62.2701V59.6755H1.33333V62.2701H0ZM2.66667 62.2701V59.6755H4V62.2701H2.66667ZM5.33333 62.2701V59.6755H6.66667V62.2701H5.33333ZM8 62.2701V59.6755H9.33333V62.2701H8ZM10.6667 67.4593V64.8647H12V67.4593H10.6667ZM0 67.4593V64.8647H1.33333V67.4593H0ZM2.66667 67.4593V64.8647H4V67.4593H2.66667ZM5.33333 67.4593V64.8647H6.66667V67.4593H5.33333ZM8 67.4593V64.8647H9.33333V67.4593H8ZM10.6667 72.6485V70.0539H12V72.6485H10.6667ZM0 72.6485V70.0539H1.33333V72.6485H0ZM2.66667 72.6485V70.0539H4V72.6485H2.66667ZM5.33333 72.6485V70.0539H6.66667V72.6485H5.33333ZM8 72.6485V70.0539H9.33333V72.6485H8ZM10.6667 77.8377V75.2431H12V77.8377H10.6667ZM0 77.8377V75.2431H1.33333V77.8377H0ZM2.66667 77.8377V75.2431H4V77.8377H2.66667ZM5.33333 77.8377V75.2431H6.66667V77.8377H5.33333ZM8 77.8377V75.2431H9.33333V77.8377H8ZM10.6667 83.0269V80.4323H12V83.0269H10.6667ZM0 83.0269V80.4323H1.33333V83.0269H0ZM2.66667 83.0269V80.4323H4V83.0269H2.66667ZM5.33333 83.0269V80.4323H6.66667V83.0269H5.33333ZM8 83.0269V80.4323H9.33333V83.0269H8ZM10.6667 88.2161V85.6215H12V88.2161H10.6667ZM0 88.2161V85.6215H1.33333V88.2161H0ZM2.66667 88.2161V85.6215H4V88.2161H2.66667ZM5.33333 88.2161V85.6215H6.66667V88.2161H5.33333ZM8 88.2161V85.6215H9.33333V88.2161H8ZM10.6667 93.4052V90.8107H12V93.4052H10.6667ZM0 93.4052V90.8107H1.33333V93.4052H0ZM2.66667 93.4052V90.8107H4V93.4052H2.66667ZM5.33333 93.4052V90.8107H6.66667V93.4052H5.33333ZM8 93.4052V90.8107H9.33333V93.4052H8ZM10.6667 98.5944V95.9998H12V98.5944H10.6667ZM0 98.5944V95.9998H1.33333V98.5944H0ZM2.66667 98.5944V95.9998H4V98.5944H2.66667ZM5.33333 98.5944V95.9998H6.66667V98.5944H5.33333ZM8 98.5944V95.9998H9.33333V98.5944H8ZM10.6667 103.784V101.189H12V103.784H10.6667ZM0 103.784V101.189H1.33333V103.784H0ZM2.66667 103.784V101.189H4V103.784H2.66667ZM5.33333 103.784V101.189H6.66667V103.784H5.33333ZM8 103.784V101.189H9.33333V103.784H8ZM10.6667 108.973V106.378H12V108.973H10.6667ZM0 108.973V106.378H1.33333V108.973H0ZM2.66667 108.973V106.378H4V108.973H2.66667ZM5.33333 108.973V106.378H6.66667V108.973H5.33333ZM8 108.973V106.378H9.33333V108.973H8Z" fill="#B84040"/>
<path d="M22.8 56.963V54.4863H24V56.963H22.8ZM12 108.973V106.496H13.2V108.973H12ZM12 104.019V101.543H13.2V104.019H12ZM13.2 106.496V104.019H14.4V106.496H13.2ZM14.4 108.973V106.496H15.6V108.973H14.4ZM12 99.0662V96.5895H13.2V99.0662H12ZM13.2 101.543V99.0662H14.4V101.543H13.2ZM14.4 104.019V101.543H15.6V104.019H14.4ZM15.6 106.496V104.019H16.8V106.496H15.6ZM16.8 108.973V106.496H18V108.973H16.8ZM12 94.1129V91.6362H13.2V94.1129H12ZM13.2 96.5895V94.1129H14.4V96.5895H13.2ZM14.4 99.0662V96.5895H15.6V99.0662H14.4ZM15.6 101.543V99.0662H16.8V101.543H15.6ZM16.8 104.019V101.543H18V104.019H16.8ZM18 106.496V104.019H19.2V106.496H18ZM19.2 108.973V106.496H20.4V108.973H19.2ZM12 89.1595V86.6829H13.2V89.1595H12ZM13.2 91.6362V89.1595H14.4V91.6362H13.2ZM14.4 94.1129V91.6362H15.6V94.1129H14.4ZM15.6 96.5895V94.1129H16.8V96.5895H15.6ZM16.8 99.0662V96.5895H18V99.0662H16.8ZM18 101.543V99.0662H19.2V101.543H18ZM19.2 104.019V101.543H20.4V104.019H19.2ZM20.4 106.496V104.019H21.6V106.496H20.4ZM21.6 108.973V106.496H22.8V108.973H21.6ZM12 84.2062V81.7296H13.2V84.2062H12ZM13.2 86.6829V84.2062H14.4V86.6829H13.2ZM14.4 89.1595V86.6829H15.6V89.1595H14.4ZM15.6 91.6362V89.1595H16.8V91.6362H15.6ZM16.8 94.1129V91.6362H18V94.1129H16.8ZM18 96.5895V94.1129H19.2V96.5895H18ZM19.2 99.0662V96.5895H20.4V99.0662H19.2ZM20.4 101.543V99.0662H21.6V101.543H20.4ZM21.6 104.019V101.543H22.8V104.019H21.6ZM22.8 106.496V104.019H24V106.496H22.8ZM12 79.2529V76.7763H13.2V79.2529H12ZM13.2 81.7296V79.2529H14.4V81.7296H13.2ZM14.4 84.2062V81.7296H15.6V84.2062H14.4ZM15.6 86.6829V84.2062H16.8V86.6829H15.6ZM16.8 89.1595V86.6829H18V89.1595H16.8ZM18 91.6362V89.1595H19.2V91.6362H18ZM19.2 94.1129V91.6362H20.4V94.1129H19.2ZM20.4 96.5895V94.1129H21.6V96.5895H20.4ZM21.6 99.0662V96.5895H22.8V99.0662H21.6ZM22.8 101.543V99.0662H24V101.543H22.8ZM12 74.2996V71.8229H13.2V74.2996H12ZM13.2 76.7763V74.2996H14.4V76.7763H13.2ZM14.4 79.2529V76.7763H15.6V79.2529H14.4ZM15.6 81.7296V79.2529H16.8V81.7296H15.6ZM16.8 84.2062V81.7296H18V84.2062H16.8ZM18 86.6829V84.2062H19.2V86.6829H18ZM19.2 89.1595V86.6829H20.4V89.1595H19.2ZM20.4 91.6362V89.1595H21.6V91.6362H20.4ZM21.6 94.1129V91.6362H22.8V94.1129H21.6ZM22.8 96.5895V94.1129H24V96.5895H22.8ZM12 69.3463V66.8696H13.2V69.3463H12ZM13.2 71.8229V69.3463H14.4V71.8229H13.2ZM14.4 74.2996V71.8229H15.6V74.2996H14.4ZM15.6 76.7763V74.2996H16.8V76.7763H15.6ZM16.8 79.2529V76.7763H18V79.2529H16.8ZM18 81.7296V79.2529H19.2V81.7296H18ZM19.2 84.2062V81.7296H20.4V84.2062H19.2ZM20.4 86.6829V84.2062H21.6V86.6829H20.4ZM21.6 89.1595V86.6829H22.8V89.1595H21.6ZM22.8 91.6362V89.1595H24V91.6362H22.8ZM12 64.393V61.9163H13.2V64.393H12ZM13.2 66.8696V64.393H14.4V66.8696H13.2ZM14.4 69.3463V66.8696H15.6V69.3463H14.4ZM15.6 71.8229V69.3463H16.8V71.8229H15.6ZM16.8 74.2996V71.8229H18V74.2996H16.8ZM18 76.7763V74.2996H19.2V76.7763H18ZM19.2 79.2529V76.7763H20.4V79.2529H19.2ZM20.4 81.7296V79.2529H21.6V81.7296H20.4ZM21.6 84.2062V81.7296H22.8V84.2062H21.6ZM22.8 86.6829V84.2062H24V86.6829H22.8ZM12 59.4396V56.963H13.2V59.4396H12ZM13.2 61.9163V59.4396H14.4V61.9163H13.2ZM14.4 64.393V61.9163H15.6V64.393H14.4ZM15.6 66.8696V64.393H16.8V66.8696H15.6ZM16.8 69.3463V66.8696H18V69.3463H16.8ZM18 71.8229V69.3463H19.2V71.8229H18ZM19.2 74.2996V71.8229H20.4V74.2996H19.2ZM20.4 76.7763V74.2996H21.6V76.7763H20.4ZM21.6 79.2529V76.7763H22.8V79.2529H21.6ZM22.8 81.7296V79.2529H24V81.7296H22.8ZM13.2 56.963V54.4863H14.4V56.963H13.2ZM14.4 59.4396V56.963H15.6V59.4396H14.4ZM15.6 61.9163V59.4396H16.8V61.9163H15.6ZM16.8 64.393V61.9163H18V64.393H16.8ZM18 66.8696V64.393H19.2V66.8696H18ZM19.2 69.3463V66.8696H20.4V69.3463H19.2ZM20.4 71.8229V69.3463H21.6V71.8229H20.4ZM21.6 74.2996V71.8229H22.8V74.2996H21.6ZM22.8 76.7763V74.2996H24V76.7763H22.8ZM15.6 56.963V54.4863H16.8V56.963H15.6ZM16.8 59.4396V56.963H18V59.4396H16.8ZM18 61.9163V59.4396H19.2V61.9163H18ZM19.2 64.393V61.9163H20.4V64.393H19.2ZM20.4 66.8696V64.393H21.6V66.8696H20.4ZM21.6 69.3463V66.8696H22.8V69.3463H21.6ZM22.8 71.8229V69.3463H24V71.8229H22.8ZM18 56.963V54.4863H19.2V56.963H18ZM19.2 59.4396V56.963H20.4V59.4396H19.2ZM20.4 61.9163V59.4396H21.6V61.9163H20.4ZM21.6 64.393V61.9163H22.8V64.393H21.6ZM22.8 66.8696V64.393H24V66.8696H22.8ZM20.4 56.963V54.4863H21.6V56.963H20.4ZM21.6 59.4396V56.963H22.8V59.4396H21.6ZM22.8 61.9163V59.4396H24V61.9163H22.8Z" fill="#B84040"/>
<path d="M34.8 56.963V54.4863H36V56.963H34.8ZM24 108.973V106.496H25.2V108.973H24ZM24 104.019V101.543H25.2V104.019H24ZM25.2 106.496V104.019H26.4V106.496H25.2ZM26.4 108.973V106.496H27.6V108.973H26.4ZM24 99.0662V96.5895H25.2V99.0662H24ZM25.2 101.543V99.0662H26.4V101.543H25.2ZM26.4 104.019V101.543H27.6V104.019H26.4ZM27.6 106.496V104.019H28.8V106.496H27.6ZM28.8 108.973V106.496H30V108.973H28.8ZM24 94.1129V91.6362H25.2V94.1129H24ZM25.2 96.5895V94.1129H26.4V96.5895H25.2ZM26.4 99.0662V96.5895H27.6V99.0662H26.4ZM27.6 101.543V99.0662H28.8V101.543H27.6ZM28.8 104.019V101.543H30V104.019H28.8ZM30 106.496V104.019H31.2V106.496H30ZM31.2 108.973V106.496H32.4V108.973H31.2ZM24 89.1595V86.6829H25.2V89.1595H24ZM25.2 91.6362V89.1595H26.4V91.6362H25.2ZM26.4 94.1129V91.6362H27.6V94.1129H26.4ZM27.6 96.5895V94.1129H28.8V96.5895H27.6ZM28.8 99.0662V96.5895H30V99.0662H28.8ZM30 101.543V99.0662H31.2V101.543H30ZM31.2 104.019V101.543H32.4V104.019H31.2ZM32.4 106.496V104.019H33.6V106.496H32.4ZM33.6 108.973V106.496H34.8V108.973H33.6ZM24 84.2062V81.7296H25.2V84.2062H24ZM25.2 86.6829V84.2062H26.4V86.6829H25.2ZM26.4 89.1595V86.6829H27.6V89.1595H26.4ZM27.6 91.6362V89.1595H28.8V91.6362H27.6ZM28.8 94.1129V91.6362H30V94.1129H28.8ZM30 96.5895V94.1129H31.2V96.5895H30ZM31.2 99.0662V96.5895H32.4V99.0662H31.2ZM32.4 101.543V99.0662H33.6V101.543H32.4ZM33.6 104.019V101.543H34.8V104.019H33.6ZM34.8 106.496V104.019H36V106.496H34.8ZM24 79.2529V76.7763H25.2V79.2529H24ZM25.2 81.7296V79.2529H26.4V81.7296H25.2ZM26.4 84.2062V81.7296H27.6V84.2062H26.4ZM27.6 86.6829V84.2062H28.8V86.6829H27.6ZM28.8 89.1595V86.6829H30V89.1595H28.8ZM30 91.6362V89.1595H31.2V91.6362H30ZM31.2 94.1129V91.6362H32.4V94.1129H31.2ZM32.4 96.5895V94.1129H33.6V96.5895H32.4ZM33.6 99.0662V96.5895H34.8V99.0662H33.6ZM34.8 101.543V99.0662H36V101.543H34.8ZM24 74.2996V71.8229H25.2V74.2996H24ZM25.2 76.7763V74.2996H26.4V76.7763H25.2ZM26.4 79.2529V76.7763H27.6V79.2529H26.4ZM27.6 81.7296V79.2529H28.8V81.7296H27.6ZM28.8 84.2062V81.7296H30V84.2062H28.8ZM30 86.6829V84.2062H31.2V86.6829H30ZM31.2 89.1595V86.6829H32.4V89.1595H31.2ZM32.4 91.6362V89.1595H33.6V91.6362H32.4ZM33.6 94.1129V91.6362H34.8V94.1129H33.6ZM34.8 96.5895V94.1129H36V96.5895H34.8ZM24 69.3463V66.8696H25.2V69.3463H24ZM25.2 71.8229V69.3463H26.4V71.8229H25.2ZM26.4 74.2996V71.8229H27.6V74.2996H26.4ZM27.6 76.7763V74.2996H28.8V76.7763H27.6ZM28.8 79.2529V76.7763H30V79.2529H28.8ZM30 81.7296V79.2529H31.2V81.7296H30ZM31.2 84.2062V81.7296H32.4V84.2062H31.2ZM32.4 86.6829V84.2062H33.6V86.6829H32.4ZM33.6 89.1595V86.6829H34.8V89.1595H33.6ZM34.8 91.6362V89.1595H36V91.6362H34.8ZM24 64.393V61.9163H25.2V64.393H24ZM25.2 66.8696V64.393H26.4V66.8696H25.2ZM26.4 69.3463V66.8696H27.6V69.3463H26.4ZM27.6 71.8229V69.3463H28.8V71.8229H27.6ZM28.8 74.2996V71.8229H30V74.2996H28.8ZM30 76.7763V74.2996H31.2V76.7763H30ZM31.2 79.2529V76.7763H32.4V79.2529H31.2ZM32.4 81.7296V79.2529H33.6V81.7296H32.4ZM33.6 84.2062V81.7296H34.8V84.2062H33.6ZM34.8 86.6829V84.2062H36V86.6829H34.8ZM24 59.4396V56.963H25.2V59.4396H24ZM25.2 61.9163V59.4396H26.4V61.9163H25.2ZM26.4 64.393V61.9163H27.6V64.393H26.4ZM27.6 66.8696V64.393H28.8V66.8696H27.6ZM28.8 69.3463V66.8696H30V69.3463H28.8ZM30 71.8229V69.3463H31.2V71.8229H30ZM31.2 74.2996V71.8229H32.4V74.2996H31.2ZM32.4 76.7763V74.2996H33.6V76.7763H32.4ZM33.6 79.2529V76.7763H34.8V79.2529H33.6ZM34.8 81.7296V79.2529H36V81.7296H34.8ZM25.2 56.963V54.4863H26.4V56.963H25.2ZM26.4 59.4396V56.963H27.6V59.4396H26.4ZM27.6 61.9163V59.4396H28.8V61.9163H27.6ZM28.8 64.393V61.9163H30V64.393H28.8ZM30 66.8696V64.393H31.2V66.8696H30ZM31.2 69.3463V66.8696H32.4V69.3463H31.2ZM32.4 71.8229V69.3463H33.6V71.8229H32.4ZM33.6 74.2996V71.8229H34.8V74.2996H33.6ZM34.8 76.7763V74.2996H36V76.7763H34.8ZM27.6 56.963V54.4863H28.8V56.963H27.6ZM28.8 59.4396V56.963H30V59.4396H28.8ZM30 61.9163V59.4396H31.2V61.9163H30ZM31.2 64.393V61.9163H32.4V64.393H31.2ZM32.4 66.8696V64.393H33.6V66.8696H32.4ZM33.6 69.3463V66.8696H34.8V69.3463H33.6ZM34.8 71.8229V69.3463H36V71.8229H34.8ZM30 56.963V54.4863H31.2V56.963H30ZM31.2 59.4396V56.963H32.4V59.4396H31.2ZM32.4 61.9163V59.4396H33.6V61.9163H32.4ZM33.6 64.393V61.9163H34.8V64.393H33.6ZM34.8 66.8696V64.393H36V66.8696H34.8ZM32.4 56.963V54.4863H33.6V56.963H32.4ZM33.6 59.4396V56.963H34.8V59.4396H33.6ZM34.8 61.9163V59.4396H36V61.9163H34.8Z" fill="#B84040"/>
<path d="M36 108.973V106.496H37.2V104.019H36V101.543H37.2V99.0662H36V96.5895H37.2V94.1129H36V91.6362H37.2V89.1595H36V86.6829H37.2V84.2062H36V81.7296H37.2V79.2529H36V76.7763H37.2V74.2996H36V71.8229H37.2V69.3463H36V66.8696H37.2V64.393H36V61.9163H37.2V59.4396H36V56.963H37.2V54.4863H38.4V56.963H39.6V54.4863H40.8V56.963H42V54.4863H43.2V56.963H44.4V54.4863H45.6V56.963H46.8V54.4863H48V108.973H36ZM38.4 106.496H39.6V104.019H38.4V106.496ZM38.4 101.543H39.6V99.0662H38.4V101.543ZM40.8 106.496H42V104.019H40.8V106.496ZM38.4 96.5895H39.6V94.1129H38.4V96.5895ZM40.8 101.543H42V99.0662H40.8V101.543ZM43.2 106.496H44.4V104.019H43.2V106.496ZM38.4 91.6362H39.6V89.1595H38.4V91.6362ZM40.8 96.5895H42V94.1129H40.8V96.5895ZM43.2 101.543H44.4V99.0662H43.2V101.543ZM45.6 106.496H46.8V104.019H45.6V106.496ZM38.4 86.6829H39.6V84.2062H38.4V86.6829ZM40.8 91.6362H42V89.1595H40.8V91.6362ZM43.2 96.5895H44.4V94.1129H43.2V96.5895ZM45.6 101.543H46.8V99.0662H45.6V101.543ZM38.4 81.7296H39.6V79.2529H38.4V81.7296ZM40.8 86.6829H42V84.2062H40.8V86.6829ZM43.2 91.6362H44.4V89.1595H43.2V91.6362ZM45.6 96.5895H46.8V94.1129H45.6V96.5895ZM38.4 76.7763H39.6V74.2996H38.4V76.7763ZM40.8 81.7296H42V79.2529H40.8V81.7296ZM43.2 86.6829H44.4V84.2062H43.2V86.6829ZM45.6 91.6362H46.8V89.1595H45.6V91.6362ZM38.4 71.8229H39.6V69.3463H38.4V71.8229ZM40.8 76.7763H42V74.2996H40.8V76.7763ZM43.2 81.7296H44.4V79.2529H43.2V81.7296ZM45.6 86.6829H46.8V84.2062H45.6V86.6829ZM38.4 66.8696H39.6V64.393H38.4V66.8696ZM40.8 71.8229H42V69.3463H40.8V71.8229ZM43.2 76.7763H44.4V74.2996H43.2V76.7763ZM45.6 81.7296H46.8V79.2529H45.6V81.7296ZM38.4 61.9163H39.6V59.4396H38.4V61.9163ZM40.8 66.8696H42V64.393H40.8V66.8696ZM43.2 71.8229H44.4V69.3463H43.2V71.8229ZM45.6 76.7763H46.8V74.2996H45.6V76.7763ZM40.8 61.9163H42V59.4396H40.8V61.9163ZM43.2 66.8696H44.4V64.393H43.2V66.8696ZM45.6 71.8229H46.8V69.3463H45.6V71.8229ZM43.2 61.9163H44.4V59.4396H43.2V61.9163ZM45.6 66.8696H46.8V64.393H45.6V66.8696ZM45.6 61.9163H46.8V59.4396H45.6V61.9163Z" fill="#B84040"/>
<path d="M48 108.973V54.4863H60V108.973H48Z" fill="#B84040"/>
<path d="M10.6667 111.496V108.973H12V111.496H10.6667ZM0 111.496V108.973H1.33333V111.496H0ZM2.66667 111.496V108.973H4V111.496H2.66667ZM5.33333 111.496V108.973H6.66667V111.496H5.33333ZM8 111.496V108.973H9.33333V111.496H8ZM10.6667 116.544V114.02H12V116.544H10.6667ZM0 116.544V114.02H1.33333V116.544H0ZM2.66667 116.544V114.02H4V116.544H2.66667ZM5.33333 116.544V114.02H6.66667V116.544H5.33333ZM8 116.544V114.02H9.33333V116.544H8ZM10.6667 121.592V119.068H12V121.592H10.6667ZM0 121.592V119.068H1.33333V121.592H0ZM2.66667 121.592V119.068H4V121.592H2.66667ZM5.33333 121.592V119.068H6.66667V121.592H5.33333ZM8 121.592V119.068H9.33333V121.592H8ZM10.6667 126.639V124.116H12V126.639H10.6667ZM0 126.639V124.116H1.33333V126.639H0ZM2.66667 126.639V124.116H4V126.639H2.66667ZM5.33333 126.639V124.116H6.66667V126.639H5.33333ZM8 126.639V124.116H9.33333V126.639H8ZM10.6667 131.687V129.163H12V131.687H10.6667ZM0 131.687V129.163H1.33333V131.687H0ZM2.66667 131.687V129.163H4V131.687H2.66667ZM5.33333 131.687V129.163H6.66667V131.687H5.33333ZM8 131.687V129.163H9.33333V131.687H8ZM10.6667 136.735V134.211H12V136.735H10.6667ZM0 136.735V134.211H1.33333V136.735H0ZM2.66667 136.735V134.211H4V136.735H2.66667ZM5.33333 136.735V134.211H6.66667V136.735H5.33333ZM8 136.735V134.211H9.33333V136.735H8ZM10.6667 141.782V139.258H12V141.782H10.6667ZM0 141.782V139.258H1.33333V141.782H0ZM2.66667 141.782V139.258H4V141.782H2.66667ZM5.33333 141.782V139.258H6.66667V141.782H5.33333ZM8 141.782V139.258H9.33333V141.782H8ZM10.6667 146.83V144.306H12V146.83H10.6667ZM0 146.83V144.306H1.33333V146.83H0ZM2.66667 146.83V144.306H4V146.83H2.66667ZM5.33333 146.83V144.306H6.66667V146.83H5.33333ZM8 146.83V144.306H9.33333V146.83H8ZM10.6667 151.877V149.354H12V151.877H10.6667ZM0 151.877V149.354H1.33333V151.877H0ZM2.66667 151.877V149.354H4V151.877H2.66667ZM5.33333 151.877V149.354H6.66667V151.877H5.33333ZM8 151.877V149.354H9.33333V151.877H8ZM10.6667 156.925V154.401H12V156.925H10.6667ZM0 156.925V154.401H1.33333V156.925H0ZM2.66667 156.925V154.401H4V156.925H2.66667ZM5.33333 156.925V154.401H6.66667V156.925H5.33333ZM8 156.925V154.401H9.33333V156.925H8ZM10.6667 161.973V159.449H12V161.973H10.6667ZM0 161.973V159.449H1.33333V161.973H0ZM2.66667 161.973V159.449H4V161.973H2.66667ZM5.33333 161.973V159.449H6.66667V161.973H5.33333ZM8 161.973V159.449H9.33333V161.973H8Z" fill="#B84040"/>
<path d="M22.8 111.382V108.973H24V111.382H22.8ZM12 161.973V159.564H13.2V161.973H12ZM12 157.154V154.745H13.2V157.154H12ZM13.2 159.564V157.154H14.4V159.564H13.2ZM14.4 161.973V159.564H15.6V161.973H14.4ZM12 152.336V149.927H13.2V152.336H12ZM13.2 154.745V152.336H14.4V154.745H13.2ZM14.4 157.154V154.745H15.6V157.154H14.4ZM15.6 159.564V157.154H16.8V159.564H15.6ZM16.8 161.973V159.564H18V161.973H16.8ZM12 147.518V145.109H13.2V147.518H12ZM13.2 149.927V147.518H14.4V149.927H13.2ZM14.4 152.336V149.927H15.6V152.336H14.4ZM15.6 154.745V152.336H16.8V154.745H15.6ZM16.8 157.154V154.745H18V157.154H16.8ZM18 159.564V157.154H19.2V159.564H18ZM19.2 161.973V159.564H20.4V161.973H19.2ZM12 142.7V140.291H13.2V142.7H12ZM13.2 145.109V142.7H14.4V145.109H13.2ZM14.4 147.518V145.109H15.6V147.518H14.4ZM15.6 149.927V147.518H16.8V149.927H15.6ZM16.8 152.336V149.927H18V152.336H16.8ZM18 154.745V152.336H19.2V154.745H18ZM19.2 157.154V154.745H20.4V157.154H19.2ZM20.4 159.564V157.154H21.6V159.564H20.4ZM21.6 161.973V159.564H22.8V161.973H21.6ZM12 137.882V135.473H13.2V137.882H12ZM13.2 140.291V137.882H14.4V140.291H13.2ZM14.4 142.7V140.291H15.6V142.7H14.4ZM15.6 145.109V142.7H16.8V145.109H15.6ZM16.8 147.518V145.109H18V147.518H16.8ZM18 149.927V147.518H19.2V149.927H18ZM19.2 152.336V149.927H20.4V152.336H19.2ZM20.4 154.745V152.336H21.6V154.745H20.4ZM21.6 157.154V154.745H22.8V157.154H21.6ZM22.8 159.564V157.154H24V159.564H22.8ZM12 133.064V130.654H13.2V133.064H12ZM13.2 135.473V133.064H14.4V135.473H13.2ZM14.4 137.882V135.473H15.6V137.882H14.4ZM15.6 140.291V137.882H16.8V140.291H15.6ZM16.8 142.7V140.291H18V142.7H16.8ZM18 145.109V142.7H19.2V145.109H18ZM19.2 147.518V145.109H20.4V147.518H19.2ZM20.4 149.927V147.518H21.6V149.927H20.4ZM21.6 152.336V149.927H22.8V152.336H21.6ZM22.8 154.745V152.336H24V154.745H22.8ZM12 128.245V125.836H13.2V128.245H12ZM13.2 130.654V128.245H14.4V130.654H13.2ZM14.4 133.064V130.654H15.6V133.064H14.4ZM15.6 135.473V133.064H16.8V135.473H15.6ZM16.8 137.882V135.473H18V137.882H16.8ZM18 140.291V137.882H19.2V140.291H18ZM19.2 142.7V140.291H20.4V142.7H19.2ZM20.4 145.109V142.7H21.6V145.109H20.4ZM21.6 147.518V145.109H22.8V147.518H21.6ZM22.8 149.927V147.518H24V149.927H22.8ZM12 123.427V121.018H13.2V123.427H12ZM13.2 125.836V123.427H14.4V125.836H13.2ZM14.4 128.245V125.836H15.6V128.245H14.4ZM15.6 130.654V128.245H16.8V130.654H15.6ZM16.8 133.064V130.654H18V133.064H16.8ZM18 135.473V133.064H19.2V135.473H18ZM19.2 137.882V135.473H20.4V137.882H19.2ZM20.4 140.291V137.882H21.6V140.291H20.4ZM21.6 142.7V140.291H22.8V142.7H21.6ZM22.8 145.109V142.7H24V145.109H22.8ZM12 118.609V116.2H13.2V118.609H12ZM13.2 121.018V118.609H14.4V121.018H13.2ZM14.4 123.427V121.018H15.6V123.427H14.4ZM15.6 125.836V123.427H16.8V125.836H15.6ZM16.8 128.245V125.836H18V128.245H16.8ZM18 130.654V128.245H19.2V130.654H18ZM19.2 133.064V130.654H20.4V133.064H19.2ZM20.4 135.473V133.064H21.6V135.473H20.4ZM21.6 137.882V135.473H22.8V137.882H21.6ZM22.8 140.291V137.882H24V140.291H22.8ZM12 113.791V111.382H13.2V113.791H12ZM13.2 116.2V113.791H14.4V116.2H13.2ZM14.4 118.609V116.2H15.6V118.609H14.4ZM15.6 121.018V118.609H16.8V121.018H15.6ZM16.8 123.427V121.018H18V123.427H16.8ZM18 125.836V123.427H19.2V125.836H18ZM19.2 128.245V125.836H20.4V128.245H19.2ZM20.4 130.654V128.245H21.6V130.654H20.4ZM21.6 133.064V130.654H22.8V133.064H21.6ZM22.8 135.473V133.064H24V135.473H22.8ZM13.2 111.382V108.973H14.4V111.382H13.2ZM14.4 113.791V111.382H15.6V113.791H14.4ZM15.6 116.2V113.791H16.8V116.2H15.6ZM16.8 118.609V116.2H18V118.609H16.8ZM18 121.018V118.609H19.2V121.018H18ZM19.2 123.427V121.018H20.4V123.427H19.2ZM20.4 125.836V123.427H21.6V125.836H20.4ZM21.6 128.245V125.836H22.8V128.245H21.6ZM22.8 130.654V128.245H24V130.654H22.8ZM15.6 111.382V108.973H16.8V111.382H15.6ZM16.8 113.791V111.382H18V113.791H16.8ZM18 116.2V113.791H19.2V116.2H18ZM19.2 118.609V116.2H20.4V118.609H19.2ZM20.4 121.018V118.609H21.6V121.018H20.4ZM21.6 123.427V121.018H22.8V123.427H21.6ZM22.8 125.836V123.427H24V125.836H22.8ZM18 111.382V108.973H19.2V111.382H18ZM19.2 113.791V111.382H20.4V113.791H19.2ZM20.4 116.2V113.791H21.6V116.2H20.4ZM21.6 118.609V116.2H22.8V118.609H21.6ZM22.8 121.018V118.609H24V121.018H22.8ZM20.4 111.382V108.973H21.6V111.382H20.4ZM21.6 113.791V111.382H22.8V113.791H21.6ZM22.8 116.2V113.791H24V116.2H22.8Z" fill="#B84040"/>
<path d="M34.8 111.382V108.973H36V111.382H34.8ZM24 161.973V159.564H25.2V161.973H24ZM24 157.154V154.745H25.2V157.154H24ZM25.2 159.564V157.154H26.4V159.564H25.2ZM26.4 161.973V159.564H27.6V161.973H26.4ZM24 152.336V149.927H25.2V152.336H24ZM25.2 154.745V152.336H26.4V154.745H25.2ZM26.4 157.154V154.745H27.6V157.154H26.4ZM27.6 159.564V157.154H28.8V159.564H27.6ZM28.8 161.973V159.564H30V161.973H28.8ZM24 147.518V145.109H25.2V147.518H24ZM25.2 149.927V147.518H26.4V149.927H25.2ZM26.4 152.336V149.927H27.6V152.336H26.4ZM27.6 154.745V152.336H28.8V154.745H27.6ZM28.8 157.154V154.745H30V157.154H28.8ZM30 159.564V157.154H31.2V159.564H30ZM31.2 161.973V159.564H32.4V161.973H31.2ZM24 142.7V140.291H25.2V142.7H24ZM25.2 145.109V142.7H26.4V145.109H25.2ZM26.4 147.518V145.109H27.6V147.518H26.4ZM27.6 149.927V147.518H28.8V149.927H27.6ZM28.8 152.336V149.927H30V152.336H28.8ZM30 154.745V152.336H31.2V154.745H30ZM31.2 157.154V154.745H32.4V157.154H31.2ZM32.4 159.564V157.154H33.6V159.564H32.4ZM33.6 161.973V159.564H34.8V161.973H33.6ZM24 137.882V135.473H25.2V137.882H24ZM25.2 140.291V137.882H26.4V140.291H25.2ZM26.4 142.7V140.291H27.6V142.7H26.4ZM27.6 145.109V142.7H28.8V145.109H27.6ZM28.8 147.518V145.109H30V147.518H28.8ZM30 149.927V147.518H31.2V149.927H30ZM31.2 152.336V149.927H32.4V152.336H31.2ZM32.4 154.745V152.336H33.6V154.745H32.4ZM33.6 157.154V154.745H34.8V157.154H33.6ZM34.8 159.564V157.154H36V159.564H34.8ZM24 133.064V130.654H25.2V133.064H24ZM25.2 135.473V133.064H26.4V135.473H25.2ZM26.4 137.882V135.473H27.6V137.882H26.4ZM27.6 140.291V137.882H28.8V140.291H27.6ZM28.8 142.7V140.291H30V142.7H28.8ZM30 145.109V142.7H31.2V145.109H30ZM31.2 147.518V145.109H32.4V147.518H31.2ZM32.4 149.927V147.518H33.6V149.927H32.4ZM33.6 152.336V149.927H34.8V152.336H33.6ZM34.8 154.745V152.336H36V154.745H34.8ZM24 128.245V125.836H25.2V128.245H24ZM25.2 130.654V128.245H26.4V130.654H25.2ZM26.4 133.064V130.654H27.6V133.064H26.4ZM27.6 135.473V133.064H28.8V135.473H27.6ZM28.8 137.882V135.473H30V137.882H28.8ZM30 140.291V137.882H31.2V140.291H30ZM31.2 142.7V140.291H32.4V142.7H31.2ZM32.4 145.109V142.7H33.6V145.109H32.4ZM33.6 147.518V145.109H34.8V147.518H33.6ZM34.8 149.927V147.518H36V149.927H34.8ZM24 123.427V121.018H25.2V123.427H24ZM25.2 125.836V123.427H26.4V125.836H25.2ZM26.4 128.245V125.836H27.6V128.245H26.4ZM27.6 130.654V128.245H28.8V130.654H27.6ZM28.8 133.064V130.654H30V133.064H28.8ZM30 135.473V133.064H31.2V135.473H30ZM31.2 137.882V135.473H32.4V137.882H31.2ZM32.4 140.291V137.882H33.6V140.291H32.4ZM33.6 142.7V140.291H34.8V142.7H33.6ZM34.8 145.109V142.7H36V145.109H34.8ZM24 118.609V116.2H25.2V118.609H24ZM25.2 121.018V118.609H26.4V121.018H25.2ZM26.4 123.427V121.018H27.6V123.427H26.4ZM27.6 125.836V123.427H28.8V125.836H27.6ZM28.8 128.245V125.836H30V128.245H28.8ZM30 130.654V128.245H31.2V130.654H30ZM31.2 133.064V130.654H32.4V133.064H31.2ZM32.4 135.473V133.064H33.6V135.473H32.4ZM33.6 137.882V135.473H34.8V137.882H33.6ZM34.8 140.291V137.882H36V140.291H34.8ZM24 113.791V111.382H25.2V113.791H24ZM25.2 116.2V113.791H26.4V116.2H25.2ZM26.4 118.609V116.2H27.6V118.609H26.4ZM27.6 121.018V118.609H28.8V121.018H27.6ZM28.8 123.427V121.018H30V123.427H28.8ZM30 125.836V123.427H31.2V125.836H30ZM31.2 128.245V125.836H32.4V128.245H31.2ZM32.4 130.654V128.245H33.6V130.654H32.4ZM33.6 133.064V130.654H34.8V133.064H33.6ZM34.8 135.473V133.064H36V135.473H34.8ZM25.2 111.382V108.973H26.4V111.382H25.2ZM26.4 113.791V111.382H27.6V113.791H26.4ZM27.6 116.2V113.791H28.8V116.2H27.6ZM28.8 118.609V116.2H30V118.609H28.8ZM30 121.018V118.609H31.2V121.018H30ZM31.2 123.427V121.018H32.4V123.427H31.2ZM32.4 125.836V123.427H33.6V125.836H32.4ZM33.6 128.245V125.836H34.8V128.245H33.6ZM34.8 130.654V128.245H36V130.654H34.8ZM27.6 111.382V108.973H28.8V111.382H27.6ZM28.8 113.791V111.382H30V113.791H28.8ZM30 116.2V113.791H31.2V116.2H30ZM31.2 118.609V116.2H32.4V118.609H31.2ZM32.4 121.018V118.609H33.6V121.018H32.4ZM33.6 123.427V121.018H34.8V123.427H33.6ZM34.8 125.836V123.427H36V125.836H34.8ZM30 111.382V108.973H31.2V111.382H30ZM31.2 113.791V111.382H32.4V113.791H31.2ZM32.4 116.2V113.791H33.6V116.2H32.4ZM33.6 118.609V116.2H34.8V118.609H33.6ZM34.8 121.018V118.609H36V121.018H34.8ZM32.4 111.382V108.973H33.6V111.382H32.4ZM33.6 113.791V111.382H34.8V113.791H33.6ZM34.8 116.2V113.791H36V116.2H34.8Z" fill="#B84040"/>
<path d="M36 161.973V159.564H37.2V157.154H36V154.745H37.2V152.336H36V149.927H37.2V147.518H36V145.109H37.2V142.7H36V140.291H37.2V137.882H36V135.473H37.2V133.064H36V130.654H37.2V128.245H36V125.836H37.2V123.427H36V121.018H37.2V118.609H36V116.2H37.2V113.791H36V111.382H37.2V108.973H38.4V111.382H39.6V108.973H40.8V111.382H42V108.973H43.2V111.382H44.4V108.973H45.6V111.382H46.8V108.973H48V161.973H36ZM38.4 159.564H39.6V157.154H38.4V159.564ZM38.4 154.745H39.6V152.336H38.4V154.745ZM40.8 159.564H42V157.154H40.8V159.564ZM38.4 149.927H39.6V147.518H38.4V149.927ZM40.8 154.745H42V152.336H40.8V154.745ZM43.2 159.564H44.4V157.154H43.2V159.564ZM38.4 145.109H39.6V142.7H38.4V145.109ZM40.8 149.927H42V147.518H40.8V149.927ZM43.2 154.745H44.4V152.336H43.2V154.745ZM45.6 159.564H46.8V157.154H45.6V159.564ZM38.4 140.291H39.6V137.882H38.4V140.291ZM40.8 145.109H42V142.7H40.8V145.109ZM43.2 149.927H44.4V147.518H43.2V149.927ZM45.6 154.745H46.8V152.336H45.6V154.745ZM38.4 135.473H39.6V133.064H38.4V135.473ZM40.8 140.291H42V137.882H40.8V140.291ZM43.2 145.109H44.4V142.7H43.2V145.109ZM45.6 149.927H46.8V147.518H45.6V149.927ZM38.4 130.654H39.6V128.245H38.4V130.654ZM40.8 135.473H42V133.064H40.8V135.473ZM43.2 140.291H44.4V137.882H43.2V140.291ZM45.6 145.109H46.8V142.7H45.6V145.109ZM38.4 125.836H39.6V123.427H38.4V125.836ZM40.8 130.654H42V128.245H40.8V130.654ZM43.2 135.473H44.4V133.064H43.2V135.473ZM45.6 140.291H46.8V137.882H45.6V140.291ZM38.4 121.018H39.6V118.609H38.4V121.018ZM40.8 125.836H42V123.427H40.8V125.836ZM43.2 130.654H44.4V128.245H43.2V130.654ZM45.6 135.473H46.8V133.064H45.6V135.473ZM38.4 116.2H39.6V113.791H38.4V116.2ZM40.8 121.018H42V118.609H40.8V121.018ZM43.2 125.836H44.4V123.427H43.2V125.836ZM45.6 130.654H46.8V128.245H45.6V130.654ZM40.8 116.2H42V113.791H40.8V116.2ZM43.2 121.018H44.4V118.609H43.2V121.018ZM45.6 125.836H46.8V123.427H45.6V125.836ZM43.2 116.2H44.4V113.791H43.2V116.2ZM45.6 121.018H46.8V118.609H45.6V121.018ZM45.6 116.2H46.8V113.791H45.6V116.2Z" fill="#B84040"/>
<path d="M48 161.973V108.973H60V161.973H48Z" fill="#B84040"/>
<path d="M10.6667 164.496V161.973H12V164.496H10.6667ZM0 164.496V161.973H1.33333V164.496H0ZM2.66667 164.496V161.973H4V164.496H2.66667ZM5.33333 164.496V161.973H6.66667V164.496H5.33333ZM8 164.496V161.973H9.33333V164.496H8ZM10.6667 169.544V167.02H12V169.544H10.6667ZM0 169.544V167.02H1.33333V169.544H0ZM2.66667 169.544V167.02H4V169.544H2.66667ZM5.33333 169.544V167.02H6.66667V169.544H5.33333ZM8 169.544V167.02H9.33333V169.544H8ZM10.6667 174.592V172.068H12V174.592H10.6667ZM0 174.592V172.068H1.33333V174.592H0ZM2.66667 174.592V172.068H4V174.592H2.66667ZM5.33333 174.592V172.068H6.66667V174.592H5.33333ZM8 174.592V172.068H9.33333V174.592H8ZM10.6667 179.639V177.116H12V179.639H10.6667ZM0 179.639V177.116H1.33333V179.639H0ZM2.66667 179.639V177.116H4V179.639H2.66667ZM5.33333 179.639V177.116H6.66667V179.639H5.33333ZM8 179.639V177.116H9.33333V179.639H8ZM10.6667 184.687V182.163H12V184.687H10.6667ZM0 184.687V182.163H1.33333V184.687H0ZM2.66667 184.687V182.163H4V184.687H2.66667ZM5.33333 184.687V182.163H6.66667V184.687H5.33333ZM8 184.687V182.163H9.33333V184.687H8ZM10.6667 189.735V187.211H12V189.735H10.6667ZM0 189.735V187.211H1.33333V189.735H0ZM2.66667 189.735V187.211H4V189.735H2.66667ZM5.33333 189.735V187.211H6.66667V189.735H5.33333ZM8 189.735V187.211H9.33333V189.735H8ZM10.6667 194.782V192.258H12V194.782H10.6667ZM0 194.782V192.258H1.33333V194.782H0ZM2.66667 194.782V192.258H4V194.782H2.66667ZM5.33333 194.782V192.258H6.66667V194.782H5.33333ZM8 194.782V192.258H9.33333V194.782H8ZM10.6667 199.83V197.306H12V199.83H10.6667ZM0 199.83V197.306H1.33333V199.83H0ZM2.66667 199.83V197.306H4V199.83H2.66667ZM5.33333 199.83V197.306H6.66667V199.83H5.33333ZM8 199.83V197.306H9.33333V199.83H8ZM10.6667 204.877V202.354H12V204.877H10.6667ZM0 204.877V202.354H1.33333V204.877H0ZM2.66667 204.877V202.354H4V204.877H2.66667ZM5.33333 204.877V202.354H6.66667V204.877H5.33333ZM8 204.877V202.354H9.33333V204.877H8ZM10.6667 209.925V207.401H12V209.925H10.6667ZM0 209.925V207.401H1.33333V209.925H0ZM2.66667 209.925V207.401H4V209.925H2.66667ZM5.33333 209.925V207.401H6.66667V209.925H5.33333ZM8 209.925V207.401H9.33333V209.925H8ZM10.6667 214.973V212.449H12V214.973H10.6667ZM0 214.973V212.449H1.33333V214.973H0ZM2.66667 214.973V212.449H4V214.973H2.66667ZM5.33333 214.973V212.449H6.66667V214.973H5.33333ZM8 214.973V212.449H9.33333V214.973H8Z" fill="#B84040"/>
<path d="M22.8 164.382V161.973H24V164.382H22.8ZM12 214.973V212.564H13.2V214.973H12ZM12 210.154V207.745H13.2V210.154H12ZM13.2 212.564V210.154H14.4V212.564H13.2ZM14.4 214.973V212.564H15.6V214.973H14.4ZM12 205.336V202.927H13.2V205.336H12ZM13.2 207.745V205.336H14.4V207.745H13.2ZM14.4 210.154V207.745H15.6V210.154H14.4ZM15.6 212.564V210.154H16.8V212.564H15.6ZM16.8 214.973V212.564H18V214.973H16.8ZM12 200.518V198.109H13.2V200.518H12ZM13.2 202.927V200.518H14.4V202.927H13.2ZM14.4 205.336V202.927H15.6V205.336H14.4ZM15.6 207.745V205.336H16.8V207.745H15.6ZM16.8 210.154V207.745H18V210.154H16.8ZM18 212.564V210.154H19.2V212.564H18ZM19.2 214.973V212.564H20.4V214.973H19.2ZM12 195.7V193.291H13.2V195.7H12ZM13.2 198.109V195.7H14.4V198.109H13.2ZM14.4 200.518V198.109H15.6V200.518H14.4ZM15.6 202.927V200.518H16.8V202.927H15.6ZM16.8 205.336V202.927H18V205.336H16.8ZM18 207.745V205.336H19.2V207.745H18ZM19.2 210.154V207.745H20.4V210.154H19.2ZM20.4 212.564V210.154H21.6V212.564H20.4ZM21.6 214.973V212.564H22.8V214.973H21.6ZM12 190.882V188.473H13.2V190.882H12ZM13.2 193.291V190.882H14.4V193.291H13.2ZM14.4 195.7V193.291H15.6V195.7H14.4ZM15.6 198.109V195.7H16.8V198.109H15.6ZM16.8 200.518V198.109H18V200.518H16.8ZM18 202.927V200.518H19.2V202.927H18ZM19.2 205.336V202.927H20.4V205.336H19.2ZM20.4 207.745V205.336H21.6V207.745H20.4ZM21.6 210.154V207.745H22.8V210.154H21.6ZM22.8 212.564V210.154H24V212.564H22.8ZM12 186.064V183.654H13.2V186.064H12ZM13.2 188.473V186.064H14.4V188.473H13.2ZM14.4 190.882V188.473H15.6V190.882H14.4ZM15.6 193.291V190.882H16.8V193.291H15.6ZM16.8 195.7V193.291H18V195.7H16.8ZM18 198.109V195.7H19.2V198.109H18ZM19.2 200.518V198.109H20.4V200.518H19.2ZM20.4 202.927V200.518H21.6V202.927H20.4ZM21.6 205.336V202.927H22.8V205.336H21.6ZM22.8 207.745V205.336H24V207.745H22.8ZM12 181.245V178.836H13.2V181.245H12ZM13.2 183.654V181.245H14.4V183.654H13.2ZM14.4 186.064V183.654H15.6V186.064H14.4ZM15.6 188.473V186.064H16.8V188.473H15.6ZM16.8 190.882V188.473H18V190.882H16.8ZM18 193.291V190.882H19.2V193.291H18ZM19.2 195.7V193.291H20.4V195.7H19.2ZM20.4 198.109V195.7H21.6V198.109H20.4ZM21.6 200.518V198.109H22.8V200.518H21.6ZM22.8 202.927V200.518H24V202.927H22.8ZM12 176.427V174.018H13.2V176.427H12ZM13.2 178.836V176.427H14.4V178.836H13.2ZM14.4 181.245V178.836H15.6V181.245H14.4ZM15.6 183.654V181.245H16.8V183.654H15.6ZM16.8 186.064V183.654H18V186.064H16.8ZM18 188.473V186.064H19.2V188.473H18ZM19.2 190.882V188.473H20.4V190.882H19.2ZM20.4 193.291V190.882H21.6V193.291H20.4ZM21.6 195.7V193.291H22.8V195.7H21.6ZM22.8 198.109V195.7H24V198.109H22.8ZM12 171.609V169.2H13.2V171.609H12ZM13.2 174.018V171.609H14.4V174.018H13.2ZM14.4 176.427V174.018H15.6V176.427H14.4ZM15.6 178.836V176.427H16.8V178.836H15.6ZM16.8 181.245V178.836H18V181.245H16.8ZM18 183.654V181.245H19.2V183.654H18ZM19.2 186.064V183.654H20.4V186.064H19.2ZM20.4 188.473V186.064H21.6V188.473H20.4ZM21.6 190.882V188.473H22.8V190.882H21.6ZM22.8 193.291V190.882H24V193.291H22.8ZM12 166.791V164.382H13.2V166.791H12ZM13.2 169.2V166.791H14.4V169.2H13.2ZM14.4 171.609V169.2H15.6V171.609H14.4ZM15.6 174.018V171.609H16.8V174.018H15.6ZM16.8 176.427V174.018H18V176.427H16.8ZM18 178.836V176.427H19.2V178.836H18ZM19.2 181.245V178.836H20.4V181.245H19.2ZM20.4 183.654V181.245H21.6V183.654H20.4ZM21.6 186.064V183.654H22.8V186.064H21.6ZM22.8 188.473V186.064H24V188.473H22.8ZM13.2 164.382V161.973H14.4V164.382H13.2ZM14.4 166.791V164.382H15.6V166.791H14.4ZM15.6 169.2V166.791H16.8V169.2H15.6ZM16.8 171.609V169.2H18V171.609H16.8ZM18 174.018V171.609H19.2V174.018H18ZM19.2 176.427V174.018H20.4V176.427H19.2ZM20.4 178.836V176.427H21.6V178.836H20.4ZM21.6 181.245V178.836H22.8V181.245H21.6ZM22.8 183.654V181.245H24V183.654H22.8ZM15.6 164.382V161.973H16.8V164.382H15.6ZM16.8 166.791V164.382H18V166.791H16.8ZM18 169.2V166.791H19.2V169.2H18ZM19.2 171.609V169.2H20.4V171.609H19.2ZM20.4 174.018V171.609H21.6V174.018H20.4ZM21.6 176.427V174.018H22.8V176.427H21.6ZM22.8 178.836V176.427H24V178.836H22.8ZM18 164.382V161.973H19.2V164.382H18ZM19.2 166.791V164.382H20.4V166.791H19.2ZM20.4 169.2V166.791H21.6V169.2H20.4ZM21.6 171.609V169.2H22.8V171.609H21.6ZM22.8 174.018V171.609H24V174.018H22.8ZM20.4 164.382V161.973H21.6V164.382H20.4ZM21.6 166.791V164.382H22.8V166.791H21.6ZM22.8 169.2V166.791H24V169.2H22.8Z" fill="#B84040"/>
<path d="M34.8 164.382V161.973H36V164.382H34.8ZM24 214.973V212.564H25.2V214.973H24ZM24 210.154V207.745H25.2V210.154H24ZM25.2 212.564V210.154H26.4V212.564H25.2ZM26.4 214.973V212.564H27.6V214.973H26.4ZM24 205.336V202.927H25.2V205.336H24ZM25.2 207.745V205.336H26.4V207.745H25.2ZM26.4 210.154V207.745H27.6V210.154H26.4ZM27.6 212.564V210.154H28.8V212.564H27.6ZM28.8 214.973V212.564H30V214.973H28.8ZM24 200.518V198.109H25.2V200.518H24ZM25.2 202.927V200.518H26.4V202.927H25.2ZM26.4 205.336V202.927H27.6V205.336H26.4ZM27.6 207.745V205.336H28.8V207.745H27.6ZM28.8 210.154V207.745H30V210.154H28.8ZM30 212.564V210.154H31.2V212.564H30ZM31.2 214.973V212.564H32.4V214.973H31.2ZM24 195.7V193.291H25.2V195.7H24ZM25.2 198.109V195.7H26.4V198.109H25.2ZM26.4 200.518V198.109H27.6V200.518H26.4ZM27.6 202.927V200.518H28.8V202.927H27.6ZM28.8 205.336V202.927H30V205.336H28.8ZM30 207.745V205.336H31.2V207.745H30ZM31.2 210.154V207.745H32.4V210.154H31.2ZM32.4 212.564V210.154H33.6V212.564H32.4ZM33.6 214.973V212.564H34.8V214.973H33.6ZM24 190.882V188.473H25.2V190.882H24ZM25.2 193.291V190.882H26.4V193.291H25.2ZM26.4 195.7V193.291H27.6V195.7H26.4ZM27.6 198.109V195.7H28.8V198.109H27.6ZM28.8 200.518V198.109H30V200.518H28.8ZM30 202.927V200.518H31.2V202.927H30ZM31.2 205.336V202.927H32.4V205.336H31.2ZM32.4 207.745V205.336H33.6V207.745H32.4ZM33.6 210.154V207.745H34.8V210.154H33.6ZM34.8 212.564V210.154H36V212.564H34.8ZM24 186.064V183.654H25.2V186.064H24ZM25.2 188.473V186.064H26.4V188.473H25.2ZM26.4 190.882V188.473H27.6V190.882H26.4ZM27.6 193.291V190.882H28.8V193.291H27.6ZM28.8 195.7V193.291H30V195.7H28.8ZM30 198.109V195.7H31.2V198.109H30ZM31.2 200.518V198.109H32.4V200.518H31.2ZM32.4 202.927V200.518H33.6V202.927H32.4ZM33.6 205.336V202.927H34.8V205.336H33.6ZM34.8 207.745V205.336H36V207.745H34.8ZM24 181.245V178.836H25.2V181.245H24ZM25.2 183.654V181.245H26.4V183.654H25.2ZM26.4 186.064V183.654H27.6V186.064H26.4ZM27.6 188.473V186.064H28.8V188.473H27.6ZM28.8 190.882V188.473H30V190.882H28.8ZM30 193.291V190.882H31.2V193.291H30ZM31.2 195.7V193.291H32.4V195.7H31.2ZM32.4 198.109V195.7H33.6V198.109H32.4ZM33.6 200.518V198.109H34.8V200.518H33.6ZM34.8 202.927V200.518H36V202.927H34.8ZM24 176.427V174.018H25.2V176.427H24ZM25.2 178.836V176.427H26.4V178.836H25.2ZM26.4 181.245V178.836H27.6V181.245H26.4ZM27.6 183.654V181.245H28.8V183.654H27.6ZM28.8 186.064V183.654H30V186.064H28.8ZM30 188.473V186.064H31.2V188.473H30ZM31.2 190.882V188.473H32.4V190.882H31.2ZM32.4 193.291V190.882H33.6V193.291H32.4ZM33.6 195.7V193.291H34.8V195.7H33.6ZM34.8 198.109V195.7H36V198.109H34.8ZM24 171.609V169.2H25.2V171.609H24ZM25.2 174.018V171.609H26.4V174.018H25.2ZM26.4 176.427V174.018H27.6V176.427H26.4ZM27.6 178.836V176.427H28.8V178.836H27.6ZM28.8 181.245V178.836H30V181.245H28.8ZM30 183.654V181.245H31.2V183.654H30ZM31.2 186.064V183.654H32.4V186.064H31.2ZM32.4 188.473V186.064H33.6V188.473H32.4ZM33.6 190.882V188.473H34.8V190.882H33.6ZM34.8 193.291V190.882H36V193.291H34.8ZM24 166.791V164.382H25.2V166.791H24ZM25.2 169.2V166.791H26.4V169.2H25.2ZM26.4 171.609V169.2H27.6V171.609H26.4ZM27.6 174.018V171.609H28.8V174.018H27.6ZM28.8 176.427V174.018H30V176.427H28.8ZM30 178.836V176.427H31.2V178.836H30ZM31.2 181.245V178.836H32.4V181.245H31.2ZM32.4 183.654V181.245H33.6V183.654H32.4ZM33.6 186.064V183.654H34.8V186.064H33.6ZM34.8 188.473V186.064H36V188.473H34.8ZM25.2 164.382V161.973H26.4V164.382H25.2ZM26.4 166.791V164.382H27.6V166.791H26.4ZM27.6 169.2V166.791H28.8V169.2H27.6ZM28.8 171.609V169.2H30V171.609H28.8ZM30 174.018V171.609H31.2V174.018H30ZM31.2 176.427V174.018H32.4V176.427H31.2ZM32.4 178.836V176.427H33.6V178.836H32.4ZM33.6 181.245V178.836H34.8V181.245H33.6ZM34.8 183.654V181.245H36V183.654H34.8ZM27.6 164.382V161.973H28.8V164.382H27.6ZM28.8 166.791V164.382H30V166.791H28.8ZM30 169.2V166.791H31.2V169.2H30ZM31.2 171.609V169.2H32.4V171.609H31.2ZM32.4 174.018V171.609H33.6V174.018H32.4ZM33.6 176.427V174.018H34.8V176.427H33.6ZM34.8 178.836V176.427H36V178.836H34.8ZM30 164.382V161.973H31.2V164.382H30ZM31.2 166.791V164.382H32.4V166.791H31.2ZM32.4 169.2V166.791H33.6V169.2H32.4ZM33.6 171.609V169.2H34.8V171.609H33.6ZM34.8 174.018V171.609H36V174.018H34.8ZM32.4 164.382V161.973H33.6V164.382H32.4ZM33.6 166.791V164.382H34.8V166.791H33.6ZM34.8 169.2V166.791H36V169.2H34.8Z" fill="#B84040"/>
<path d="M36 214.973V212.564H37.2V210.154H36V207.745H37.2V205.336H36V202.927H37.2V200.518H36V198.109H37.2V195.7H36V193.291H37.2V190.882H36V188.473H37.2V186.064H36V183.654H37.2V181.245H36V178.836H37.2V176.427H36V174.018H37.2V171.609H36V169.2H37.2V166.791H36V164.382H37.2V161.973H38.4V164.382H39.6V161.973H40.8V164.382H42V161.973H43.2V164.382H44.4V161.973H45.6V164.382H46.8V161.973H48V214.973H36ZM38.4 212.564H39.6V210.154H38.4V212.564ZM38.4 207.745H39.6V205.336H38.4V207.745ZM40.8 212.564H42V210.154H40.8V212.564ZM38.4 202.927H39.6V200.518H38.4V202.927ZM40.8 207.745H42V205.336H40.8V207.745ZM43.2 212.564H44.4V210.154H43.2V212.564ZM38.4 198.109H39.6V195.7H38.4V198.109ZM40.8 202.927H42V200.518H40.8V202.927ZM43.2 207.745H44.4V205.336H43.2V207.745ZM45.6 212.564H46.8V210.154H45.6V212.564ZM38.4 193.291H39.6V190.882H38.4V193.291ZM40.8 198.109H42V195.7H40.8V198.109ZM43.2 202.927H44.4V200.518H43.2V202.927ZM45.6 207.745H46.8V205.336H45.6V207.745ZM38.4 188.473H39.6V186.064H38.4V188.473ZM40.8 193.291H42V190.882H40.8V193.291ZM43.2 198.109H44.4V195.7H43.2V198.109ZM45.6 202.927H46.8V200.518H45.6V202.927ZM38.4 183.654H39.6V181.245H38.4V183.654ZM40.8 188.473H42V186.064H40.8V188.473ZM43.2 193.291H44.4V190.882H43.2V193.291ZM45.6 198.109H46.8V195.7H45.6V198.109ZM38.4 178.836H39.6V176.427H38.4V178.836ZM40.8 183.654H42V181.245H40.8V183.654ZM43.2 188.473H44.4V186.064H43.2V188.473ZM45.6 193.291H46.8V190.882H45.6V193.291ZM38.4 174.018H39.6V171.609H38.4V174.018ZM40.8 178.836H42V176.427H40.8V178.836ZM43.2 183.654H44.4V181.245H43.2V183.654ZM45.6 188.473H46.8V186.064H45.6V188.473ZM38.4 169.2H39.6V166.791H38.4V169.2ZM40.8 174.018H42V171.609H40.8V174.018ZM43.2 178.836H44.4V176.427H43.2V178.836ZM45.6 183.654H46.8V181.245H45.6V183.654ZM40.8 169.2H42V166.791H40.8V169.2ZM43.2 174.018H44.4V171.609H43.2V174.018ZM45.6 178.836H46.8V176.427H45.6V178.836ZM43.2 169.2H44.4V166.791H43.2V169.2ZM45.6 174.018H46.8V171.609H45.6V174.018ZM45.6 169.2H46.8V166.791H45.6V169.2Z" fill="#B84040"/>
<path d="M48 214.973V161.973H60V214.973H48Z" fill="#B84040"/>
</svg>
